{"title":"Due.Date.2010.BDRip.XVID.AC3.HQ.Hive-CM8","uid":6149515,"size":1621380319,"categoryP":"video","categoryS":"movies","magnet":"?xt=urn:btih:ca91056f600cf5a186f42acc6a1ea7fe6bec6d09&amp;dn=Due.Date.2010.BDRip.XVID.AC3.HQ.Hive-CM8&amp;tr=udp%3A%2F%2Ftracker.openbittorrent.com%3A80&amp;tr=udp%3A%2F%2Fopen.demonii.com%3A1337&amp;tr=udp%3A%2F%2Ftracker.coppersurfer.tk%3A6969&amp;tr=udp%3A%2F%2Fexodus.desync.com%3A6969","seeders":0,"leechers":1,"uploader":"TvTeam","files":6,"time":1296827893,"description":". \n  &lt;a href=&quot;\nhttp://www.torrentday.com/&quot; rel=&quot;nofollow&quot; target=&quot;_NEW&quot;&gt;\nhttp://www.torrentday.com/&lt;/a&gt;        :     The Hottest Private Tracker On The Net!!!\n &lt;a href=&quot;\nhttp://www.torrentday.com&quot; rel=&quot;nofollow&quot; target=&quot;_NEW&quot;&gt;\nhttp://www.torrentday.com&lt;/a&gt;          :     Once &amp; For all ;)\n\n\n               www . TorrentDay . Com \n\n(((((((((((((= Enjoy No RAR releases =))))))))))))))))))))\n\n\n...................................NFO:....................................\n\n.[img]http://img593.imageshack.us/img593/5091/duedateblurayart.jpg[/img]\n\nDue Date 2010 BDRip XVID AC3 HQ Hive-CM8\n\n\n\n[b]Thx Hive\n\nCM8 Doing It Right The First Time :D\n\nWhy download a touched up rip of a rip BRrip\nGet the real deal BDRip\nEnjoy\n\nSource US Bluray\n\nVideo: 720x304 @bitrate 1800 2pass\nAudio: DTS to AC3 5.1 @448\nSample: yes included\nSubs: yes english in srt /subs[/b]\n &lt;a href=&quot;\nhttp://www.imdb.com/title/tt1231583/&quot; rel=&quot;nofollow&quot; target=&quot;_NEW&quot;&gt;\nhttp://www.imdb.com/title/tt1231583/&lt;/a&gt;\n\n\nGeneral\nComplete name                    : Due.Date.2010.BDRip.XVID.AC3.HQ.Hive-CM8.avi\nFormat                           : AVI\nFormat/Info                      : Audio Video Interleave\nFile size                        : 1.50 GiB\nDuration                         : 1h 35mn\nOverall bit rate                 : 2 260 Kbps\nWriting application              : Nandub v1.0rc2\nWriting library                  : Nandub build 1853/release\n\nVideo\nID                               : 0\nFormat                           : MPEG-4 Visual\nFormat profile                   : Advanced Simple@L5\nFormat settings, BVOP            : Yes\nFormat settings, QPel            : Yes\nFormat settings, GMC             : No warppoints\nFormat settings, Matrix          : Default (H.263)\nMuxing mode                      : Packed bitstream\nCodec ID                         : XVID\nCodec ID/Hint                    : XviD\nDuration                         : 1h 35mn\nBit rate                         : 1 802 Kbps\nWidth                            : 720 pixels\nHeight                           : 304 pixels\nDisplay aspect ratio             : 2.40:1\nFrame rate                       : 23.976 fps\nColor space                      : YUV\nChroma subsampling               : 4:2:0\nBit depth                        : 8 bits\nScan type                        : Progressive\nBits/(Pixel*Frame)               : 0.343\nStream size                      : 1.20 GiB (80%)\nWriting library                  : XviD 1.2.1 (UTC 2008-12-04)\n\nAudio\nID                               : 1\nFormat                           : AC-3\nFormat/Info                      : Audio Coding 3\nMode extension                   : CM (complete main)\nCodec ID                         : 2000\nDuration                         : 1h 35mn\nBit rate mode                    : Constant\nBit rate                         : 448 Kbps\nChannel(s)                       : 6 channels\nChannel positions                : Front: L C R, Side: L R, LFE\nSampling rate                    : 48.0 KHz\nBit depth                        : 16 bits\nStream size                      : 305 MiB (20%)\nAlignment                        : Split accross interleaves\nInterleave, duration             : 42 ms (1.00 video frame)\nInterleave, preload duration     : 500 ms\n\n\n\nRobert Downey Jr. ... Peter Highman\nZach Galifianakis ... Ethan Tremblay / Ethan Chase\nMichelle Monaghan ... Sarah Highman\nJamie Foxx ... Darryl\nJuliette Lewis ... Heidi\nDanny McBride ... Lonnie\nRZA ... Airport Screener\nMatt Walsh ... TSA Agent\nBrody Stevens ... Limo Driver\nJakob Ulrich ... Patrick\nNaiia Ulrich ... Alex\nTodd Phillips ... Barry\nBobby Tisdale ... Carl \n\n\n\nHigh-strung father-to-be Peter Highman is forced to hitch a ride with aspiring \nactor Ethan Tremblay on a road trip in order to make it to his child's birth on time.\n\n\n\n[img]http://img708.imageshack.us/img708/256/duduw.png[/img]\n[img]http://img687.imageshack.us/img687/9769/dddudduuuudu.png[/img]\n[img]http://img689.imageshack.us/img689/9277/ddduduuudu.png[/img]\n[img]http://img832.imageshack.us/img832/1402/ddduuudu.png[/img]\n[img]http://img197.imageshack.us/img197/8092/dduudu.png[/img]\n[img]http://img695.imageshack.us/img695/86/52418534.png[/img]\n[img]http://img683.imageshack.us/img683/33/dddudduduuuudu.png[/img]\n\n\n\n\n\nGreetz\n\niNK,LUSi,,MAGNET,CLASSiFiED,THC,LEGi0N,T0XiC,IMAGiNE,ViSiON,WBZ,FLAWL3SS,NOVA\nVik,Rapeseed,D2U,SAFC,goldadvance,MEMORY100,KaN1vE,Unevano,Pinnz,Wayne,Mr Hive\nand all P2P groups \nGreat Work Guys :D","torrent":{"xt":"urn:btih:ca91056f600cf5a186f42acc6a1ea7fe6bec6d09","amp;dn":"Due.Date.2010.BDRip.XVID.AC3.HQ.Hive-CM8","amp;tr":["udp%3A%2F%2Ftracker.openbittorrent.com%3A80","udp%3A%2F%2Fopen.demonii.com%3A1337","udp%3A%2F%2Ftracker.coppersurfer.tk%3A6969","udp%3A%2F%2Fexodus.desync.com%3A6969"],"infoHash":"ca91056f600cf5a186f42acc6a1ea7fe6bec6d09","infoHashBuffer":{"type":"Buffer","data":[202,145,5,111,96,12,245,161,134,244,42,204,106,30,167,254,107,236,109,9]},"announce":[],"urlList":[]}}